<svg width="124" height="30" viewBox="0 0 124 30" fill="none" xmlns="http://www.w3.org/2000/svg">
    <path d="M121.337 28.0974C121.339 28.0974 121.34 28.0974 121.343 28.0974C121.645 28.0974 121.895 27.8484 121.895 27.5458C121.895 27.5351 121.895 27.5246 121.893 27.5139C121.893 27.1002 121.644 26.9025 121.131 26.9025H120.303V29.069H120.615V28.1246H120.998L121.006 28.1361L121.6 29.069H121.933L121.295 28.1034L121.337 28.0974ZM120.976 27.8804H120.615V27.1481H121.073C121.309 27.1481 121.579 27.1866 121.579 27.4961C121.579 27.852 121.307 27.8804 120.975 27.8804H120.976ZM0 4.40822H4.59721V21.1446H13.1084V25.3847H0V4.40822ZM15.1409 11.162H19.5574V25.3768H15.1409V11.162ZM17.3491 4.09509C18.7544 4.09536 19.9107 5.25113 19.9107 6.65566C19.9107 8.06033 18.7542 9.21622 17.3487 9.21622C15.9432 9.21622 14.7866 8.06033 14.7866 6.65566C14.7866 5.25099 15.9432 4.09509 17.3487 4.09509C17.3488 4.09509 17.3489 4.09509 17.3491 4.09509ZM38.0323 4.40502H42.4488V16.9411L47.4543 11.1556H52.8691L47.0724 17.7366L52.7471 25.3828H47.1961L42.5077 18.3563H42.4497V25.3819H38.0332L38.0323 4.40502ZM22.0063 11.1635H26.2475V13.106H26.3078C27.1697 11.6301 28.7809 10.7455 30.4897 10.8098C34.9684 10.8098 35.7927 13.7548 35.7927 17.5807V25.3759H31.3762V18.4649C31.3762 16.8152 31.3459 14.6946 29.0759 14.6946C26.7803 14.6946 26.426 16.491 26.426 18.3448V25.3742H22.0095L22.0063 11.1635Z" fill="white"/>
    <path d="M62.1701 16.6161C62.1705 16.5953 62.1707 16.5744 62.1707 16.5536C62.1707 15.1018 60.9754 13.9071 59.5227 13.9071C59.5012 13.9071 59.4799 13.9074 59.4584 13.9079C57.8632 13.8086 56.4631 15.0235 56.3375 16.6161H62.1701ZM65.9112 22.9151C64.4259 24.7152 62.2061 25.7547 59.8716 25.7434C55.455 25.7434 51.9191 22.7969 51.9191 18.2345C51.9191 13.672 55.4546 10.7271 59.8716 10.7271C63.9996 10.7271 66.5884 13.6696 66.5884 18.2345V19.6185H56.3375C56.6001 21.234 58.0287 22.4217 59.6659 22.386C60.9419 22.378 62.1302 21.7231 62.8177 20.6489L65.9112 22.9151ZM75.7941 14.598C73.5859 14.598 72.261 16.0716 72.261 18.2189C72.261 20.3661 73.5854 21.841 75.7941 21.841C78.0029 21.841 79.3306 20.3697 79.3306 18.2189C79.3306 16.0679 78.0051 14.598 75.7941 14.598ZM83.3965 25.3741H79.3306V23.489H79.2704C78.2371 24.8778 76.6111 25.7067 74.8795 25.7272C70.636 25.7272 67.8407 22.6663 67.8407 18.3379C67.8407 14.3626 70.3144 10.7123 74.3808 10.7123C76.2086 10.7123 77.9159 11.2121 78.9175 12.5974H78.9754V4.40353H83.396L83.3965 25.3741ZM113.212 25.3824H108.796V18.4699C108.796 16.8215 108.766 14.6996 106.499 14.6996C104.198 14.6996 103.846 16.4955 103.846 18.3499V25.3819H99.43V11.167H103.67V13.1096H103.729C104.592 11.6345 106.204 10.7501 107.912 10.8135C112.389 10.8135 113.214 13.7561 113.214 17.5844L113.212 25.3824ZM94.4467 9.22393C94.4464 9.22393 94.4463 9.22393 94.4461 9.22393C93.0401 9.22393 91.8832 8.06776 91.8832 6.66256C91.8832 5.25736 93.0401 4.10107 94.4461 4.10107C95.852 4.10107 97.0089 5.2571 97.0091 6.66203C97.0091 6.66217 97.0091 6.6623 97.0091 6.66256C97.0091 8.0675 95.8524 9.2238 94.4467 9.22393ZM96.6549 25.3824H92.2338V11.167H96.6549V25.3824ZM115.414 0.00205514H90.0144C88.8221 -0.0114026 87.8295 0.957552 87.815 2.14916V27.6394C87.829 28.8317 88.8214 29.8017 90.0144 29.7889H115.414C116.61 29.804 117.606 28.8341 117.622 27.6394V2.14743C117.606 0.953288 116.609 -0.0155342 115.414 0.000188706V0.00205514ZM121.015 25.9374C119.907 25.948 119.002 26.8616 119.002 27.9685C119.002 29.083 119.919 30 121.034 30C122.149 30 123.067 29.083 123.067 27.9685C123.067 26.8616 122.161 25.948 121.053 25.9374H121.015ZM121.015 29.7674C121.004 29.7675 120.995 29.7676 120.984 29.7676C120.007 29.7676 119.203 28.9636 119.203 27.9864C119.203 27.0093 120.007 26.2052 120.984 26.2052C121.951 26.2052 122.751 26.9909 122.767 27.9567V27.9867C122.787 28.9424 122.017 29.7458 121.061 29.7664H121.015" fill="white"/>
</svg>
