<svg width="762" height="444" viewBox="0 0 762 444" fill="none" xmlns="http://www.w3.org/2000/svg">
    <path d="M246.097 432.889C365.637 432.889 462.543 335.983 462.543 216.444C462.543 96.9054 365.637 0 246.097 0C126.557 0 29.6508 96.9054 29.6508 216.444C29.6508 335.983 126.557 432.889 246.097 432.889Z" fill="#F2F2F2"/>
    <path d="M762 383.96C761.999 384.486 761.957 385.011 761.874 385.531C756.581 417.968 588.082 444 381 444C173.918 444 5.4185 417.968 0.12601 385.531C0.0432756 385.011 0.00114566 384.486 0 383.96C0 383.811 -2.48798e-06 383.656 0.0148224 383.507C0.0148224 383.426 0.0222364 383.352 0.0222364 383.27C0.0283591 383.241 0.0308503 383.211 0.0296505 383.181C0.0593003 382.848 0.103775 382.529 0.163075 382.203C2.57953 368.942 32.2961 356.756 80.7661 346.994C120.408 339.011 172.599 332.644 232.669 328.641C278.256 325.602 328.379 323.919 381 323.919C423.34 323.919 464.064 325.009 502.105 327.01H502.119C510.08 327.433 517.923 327.895 525.647 328.396C578.52 331.821 625.44 337.061 663.244 343.621C686.497 347.661 706.31 352.205 721.943 357.127H721.951C746.011 364.71 760.199 373.212 761.837 382.203C761.896 382.529 761.941 382.848 761.97 383.181C761.969 383.211 761.972 383.241 761.978 383.27C761.978 383.352 761.985 383.426 761.985 383.507C762 383.656 762 383.811 762 383.96Z" fill="#3F3D56"/>
    <path opacity="0.1" d="M371.364 441.776C438.911 441.776 493.669 433.811 493.669 423.987C493.669 414.162 438.911 406.197 371.364 406.197C303.816 406.197 249.058 414.162 249.058 423.987C249.058 433.811 303.816 441.776 371.364 441.776Z" fill="black"/>
    <path opacity="0.1" d="M721.943 357.127C717.666 358.35 712.848 359.484 707.563 360.522C685.8 364.806 656.106 367.437 623.409 367.437C586.881 367.437 554.14 364.154 531.955 358.958C513.542 354.644 502.394 349.033 502.394 342.873C502.394 337.462 511.022 332.451 525.647 328.396C578.52 331.821 625.44 337.062 663.244 343.622C686.497 347.661 706.31 352.205 721.943 357.127Z" fill="black"/>
    <path opacity="0.1" d="M394.342 348.936C394.342 360.151 323.983 369.246 237.198 369.246C150.413 369.246 80.0545 360.151 80.0545 348.936C80.0732 348.228 80.3231 347.546 80.7661 346.994C120.408 339.011 172.599 332.644 232.669 328.641C234.174 328.634 235.684 328.631 237.198 328.634C323.983 328.634 394.342 337.721 394.342 348.936Z" fill="black"/>
    <path d="M339.607 248.296H308.708V348.055H339.607V248.296Z" fill="#0A84FF"/>
    <path d="M238.081 201.507H207.182V348.055H238.081V201.507Z" fill="#0A84FF"/>
    <path d="M137.439 201.507H106.539V348.055H137.439V201.507Z" fill="#0A84FF"/>
    <path d="M187.76 201.507H156.861V301.266H187.76V201.507Z" fill="#0A84FF"/>
    <path d="M288.403 201.507H257.504V230.64H288.403V201.507Z" fill="#0A84FF"/>
    <path d="M288.403 248.296H257.504V348.055H288.403V248.296Z" fill="#8A8B8C"/>
    <path d="M389.928 201.507H308.708V230.64H389.928V201.507Z" fill="#0A84FF"/>
    <path d="M604.161 192.744C625.285 192.744 643.266 200.116 658.104 214.862C665.092 221.795 670.598 230.076 674.287 239.203C681.638 257.874 681.663 278.633 674.357 297.323C670.724 306.344 665.234 314.499 658.243 321.26C651.055 328.42 642.533 334.102 633.158 337.983C623.973 341.816 614.118 343.787 604.165 343.782C594.325 343.811 584.579 341.862 575.508 338.049C557.028 330.182 542.311 315.467 534.443 296.987C526.868 278.559 526.892 257.882 534.509 239.472C538.368 230.201 544.029 221.79 551.164 214.725C565.548 200.074 583.214 192.747 604.161 192.744ZM604.434 206.366C587.173 206.366 572.653 212.389 560.873 224.436C555.065 230.272 550.419 237.16 547.185 244.732C544.025 252.151 542.396 260.132 542.396 268.197C542.396 276.261 544.025 284.242 547.185 291.661C553.699 306.79 565.801 318.821 580.969 325.246C588.422 328.328 596.411 329.909 604.476 329.898C612.542 329.886 620.526 328.283 627.971 325.18C635.629 321.989 642.608 317.367 648.534 311.56C660.311 300.053 666.198 285.622 666.196 268.269C666.24 260.133 664.682 252.068 661.611 244.534C658.544 237.054 654.006 230.266 648.267 224.573C636.123 212.435 621.512 206.366 604.434 206.366ZM603.488 255.725L593.371 260.986C592.554 259.045 591.167 257.399 589.394 256.265C588.074 255.443 586.563 254.979 585.009 254.918C578.269 254.918 574.897 259.368 574.894 268.269C574.894 272.314 575.748 275.549 577.455 277.975C579.163 280.404 581.681 281.618 585.009 281.619C589.415 281.619 592.518 279.461 594.317 275.146L603.62 279.866C601.721 283.471 598.867 286.485 595.371 288.578C591.875 290.671 587.871 291.763 583.796 291.734C577.053 291.734 571.614 289.666 567.476 285.53C563.342 281.395 561.274 275.642 561.274 268.271C561.274 261.078 563.364 255.369 567.545 251.144C571.724 246.92 577.007 244.807 583.392 244.805C592.745 244.801 599.444 248.441 603.488 255.725ZM647.047 255.725L637.067 260.986C636.25 259.045 634.862 257.398 633.088 256.265C631.725 255.43 630.168 254.966 628.57 254.918C621.828 254.918 618.455 259.368 618.453 268.269C618.453 272.314 619.307 275.549 621.016 277.975C622.722 280.404 625.24 281.618 628.57 281.619C632.972 281.619 636.072 279.461 637.871 275.146L647.311 279.866C645.342 283.452 642.459 286.453 638.955 288.565C635.502 290.663 631.533 291.761 627.492 291.734C620.657 291.734 615.197 289.666 611.111 285.53C607.014 281.395 604.967 275.642 604.97 268.271C604.97 261.078 607.061 255.369 611.243 251.144C615.42 246.92 620.701 244.807 627.086 244.805C636.436 244.801 643.09 248.441 647.047 255.725Z" fill="#0A84FF"/>
    <path opacity="0.1" d="M558.467 378.28C558.467 414.406 508.111 403.232 446.455 403.232C384.799 403.232 335.191 414.406 335.191 378.28C335.191 342.154 385.54 334.297 447.196 334.297C508.852 334.297 558.467 342.154 558.467 378.28Z" fill="black"/>
    <path d="M558.467 369.386C558.467 405.512 508.111 394.338 446.455 394.338C384.799 394.338 335.191 405.512 335.191 369.386C335.191 333.259 385.54 325.402 447.196 325.402C508.852 325.402 558.467 333.259 558.467 369.386Z" fill="#3F3D56"/>
    <path d="M548.182 304.532L550.727 315.03C550.755 315.148 550.751 315.27 550.714 315.385L539.169 351.463C539.123 351.606 539.03 351.729 538.904 351.812C538.779 351.894 538.629 351.931 538.48 351.916C538.331 351.901 538.191 351.836 538.084 351.731C537.977 351.625 537.91 351.487 537.893 351.338L536.295 337.283C536.285 337.189 536.294 337.095 536.324 337.006L546.921 304.483C546.965 304.348 547.052 304.23 547.169 304.148C547.286 304.067 547.427 304.026 547.57 304.031C547.712 304.037 547.849 304.089 547.96 304.179C548.07 304.269 548.148 304.393 548.182 304.532Z" fill="#2F2E41"/>
    <path d="M547.245 305.418L549.595 314.426L539.412 347.324L537.062 337.141L547.245 305.418Z" fill="#F2F2F2"/>
    <path d="M495.94 354.373C496.332 355.548 536.671 353.982 537.063 353.59C537.404 353.099 537.693 352.574 537.924 352.023C538.292 351.24 538.629 350.457 538.629 350.457L537.063 337.776L497.115 336.358C497.115 336.358 496.117 347.104 495.913 352.023C495.844 352.806 495.853 353.593 495.94 354.373Z" fill="#2F2E41"/>
    <path opacity="0.1" d="M531.972 339.491L532.754 350.457H515.13V339.491H531.972Z" fill="black"/>
    <path opacity="0.1" d="M509.256 343.016L509.361 342.995L508.865 347.715H499.074V343.016H509.256Z" fill="black"/>
    <path opacity="0.1" d="M495.94 354.373C496.332 355.548 536.671 353.982 537.063 353.59C537.404 353.1 537.693 352.574 537.924 352.023H495.913C495.844 352.806 495.853 353.593 495.94 354.373Z" fill="black"/>
    <path d="M433.669 313.251H444.635L471.659 302.677C471.659 302.677 490.849 294.844 489.283 309.727C487.716 324.609 484.974 344.582 484.974 344.582C484.974 344.582 476.358 340.666 471.659 341.841C466.959 343.016 470.092 317.951 470.092 317.951C470.092 317.951 431.711 336.358 428.187 334.008C424.662 331.658 423.878 315.209 423.878 315.209L433.669 313.251Z" fill="#2F2E41"/>
    <path opacity="0.1" d="M433.669 313.251H444.635L471.659 302.677C471.659 302.677 490.849 294.844 489.283 309.727C487.716 324.609 484.974 344.582 484.974 344.582C484.974 344.582 476.358 340.666 471.659 341.841C466.959 343.016 470.092 317.951 470.092 317.951C470.092 317.951 431.711 336.358 428.187 334.008C424.662 331.658 423.878 315.209 423.878 315.209L433.669 313.251Z" fill="black"/>
    <path d="M450.946 278.91L464.217 297.977L495.157 323.825C495.157 323.825 523.747 330.483 519.83 335.183C515.914 339.883 492.024 330.483 492.024 330.483C492.024 330.483 456.385 304.635 455.21 302.677C454.035 300.719 441.111 282.312 441.111 282.312L450.946 278.91Z" fill="#A0616A"/>
    <path opacity="0.1" d="M450.946 278.91L464.217 297.977L495.157 323.825C495.157 323.825 523.747 330.483 519.83 335.183C515.914 339.883 492.024 330.483 492.024 330.483C492.024 330.483 456.385 304.635 455.21 302.677C454.035 300.719 441.111 282.312 441.111 282.312L450.946 278.91Z" fill="black"/>
    <path d="M448.943 258.03C458.677 258.03 466.567 250.14 466.567 240.407C466.567 230.673 458.677 222.783 448.943 222.783C439.21 222.783 431.32 230.673 431.32 240.407C431.32 250.14 439.21 258.03 448.943 258.03Z" fill="#A0616A"/>
    <path d="M447.769 256.072C447.769 256.072 441.894 266.255 440.719 271.738C439.544 277.221 423.095 260.772 423.095 260.772L420.941 255.093C420.941 255.093 436.411 247.848 435.236 241.973C434.061 236.099 447.769 256.072 447.769 256.072Z" fill="#A0616A"/>
    <path d="M443.069 263.513L451.685 280.354C451.685 280.354 449.727 288.578 446.594 289.361C443.46 290.145 430.145 279.179 430.145 279.179L443.069 263.513Z" fill="#D0CDE1"/>
    <path d="M450.902 286.62L466.959 307.768L505.34 336.358C505.34 336.358 533.146 342.232 526.88 346.54C520.614 350.848 502.598 342.624 502.598 342.624C502.598 342.624 463.826 321.867 455.601 313.251C447.377 304.635 432.103 290.145 432.103 290.145L450.902 286.62Z" fill="#A0616A"/>
    <path d="M429.361 319.517L434.061 326.959L462.109 318.134C465.148 317.152 468.363 316.842 471.533 317.224C474.704 317.607 477.753 318.673 480.471 320.35C485.366 323.434 488.499 328.329 481.45 335.575C467.351 350.065 457.951 342.232 457.951 342.232C457.951 342.232 410.563 364.556 402.73 353.59C394.897 342.624 394.505 337.141 394.505 337.141C394.505 337.141 424.662 318.343 429.361 319.517Z" fill="#2F2E41"/>
    <path d="M488.108 345.366C488.108 345.366 500.64 353.59 485.758 357.506C470.875 361.423 459.909 355.94 459.909 355.94C459.909 355.94 446.985 355.94 446.985 349.282C446.985 342.624 451.293 341.841 451.293 341.841L464.609 343.799C464.609 343.799 480.666 339.491 488.108 345.366Z" fill="#D0CDE1"/>
    <path d="M463.401 235.973C464.559 236.597 465.804 237.043 467.094 237.296C467.743 237.412 468.411 237.336 469.016 237.077C469.621 236.817 470.137 236.386 470.501 235.837C470.789 235.186 470.921 234.476 470.887 233.765C470.935 231.614 470.779 229.289 469.416 227.625C468.549 226.566 467.283 225.898 466.385 224.865C465.782 224.09 465.268 223.251 464.853 222.361C463.107 219.082 460.522 215.93 456.929 214.985C455.41 214.658 453.854 214.539 452.303 214.631L443.256 214.759C441.79 214.712 440.325 214.869 438.903 215.227C435.991 216.108 433.87 218.557 431.928 220.899C430.421 222.606 429.081 224.455 427.928 226.419C426.365 229.335 425.574 232.602 425.632 235.91C425.62 236.759 425.729 237.604 425.957 238.422C426.224 239.171 426.554 239.897 426.944 240.59C428.641 243.923 429.649 248.085 427.738 251.3C431.057 249.944 434.341 248.166 436.531 245.327C437.511 244.057 438.279 242.57 439.584 241.638C440.89 240.706 443.017 240.625 443.854 241.993C444.142 242.546 444.291 243.161 444.286 243.785C444.26 244.816 444.428 245.842 444.781 246.81C444.971 247.29 445.318 247.69 445.766 247.946C446.213 248.201 446.735 248.296 447.244 248.216C448.949 247.735 448.786 245.118 450.099 243.929C451.096 243.027 452.635 243.199 453.917 242.789C454.651 242.51 455.319 242.081 455.879 241.53C456.439 240.979 456.878 240.317 457.168 239.587C457.653 238.499 457.646 235.651 458.564 235.062C459.716 234.323 462.334 235.498 463.401 235.973Z" fill="#2F2E41"/>
    <path d="M419.542 253.235C420.335 253.024 421.17 253.026 421.961 253.242C424.476 253.916 430.111 255.703 431.32 258.422C432.886 261.947 438.369 267.43 438.369 267.43C438.369 267.43 445.81 274.871 444.244 279.962C442.677 285.053 436.803 290.928 436.803 290.928C436.803 290.928 438.369 315.209 430.536 321.476C422.704 327.742 419.57 323.434 419.57 329.308C419.57 335.183 395.289 353.59 390.589 342.232C390.589 342.232 392.939 321.084 392.156 313.643C391.384 306.309 392.514 260.553 419.542 253.235Z" fill="#D0CDE1"/>
    <path d="M432.103 263.122C432.103 263.122 455.993 280.745 451.685 288.186C451.685 288.186 437.194 295.236 434.061 294.844C430.928 294.453 418.787 280.745 415.654 279.57C412.521 278.395 410.954 257.247 432.103 263.122Z" fill="#D0CDE1"/>
    <path d="M366.035 278.914C362.319 280.169 358.953 283.104 358.192 286.951C357.839 288.735 358.056 290.588 357.759 292.382C357.07 296.542 353.805 299.718 350.794 302.669C347.782 305.62 344.672 309.048 344.452 313.258C344.212 317.869 347.555 322.188 346.977 326.769C346.305 332.09 340.684 335.538 339.295 340.719C338.367 344.178 339.504 347.905 341.374 350.959C344.939 356.779 351.031 360.731 357.519 362.849C364.007 364.967 370.917 365.413 377.742 365.485C386.052 365.572 395.074 364.858 401.318 359.374C404.885 356.213 407.124 351.821 407.588 347.078C408.181 340.725 405.53 334.161 407.359 328.048C408.51 324.201 411.396 320.688 410.966 316.695C410.544 312.792 407.135 310.025 404.796 306.871C402.612 303.927 401.287 300.45 399.989 297.022L395.545 285.293C394.671 282.987 393.712 280.562 391.765 279.048C388.121 276.215 382.261 276.772 377.999 277.356C374.046 277.898 369.837 277.63 366.035 278.914Z" fill="#2F2E41"/>
    <path d="M367.426 313.082C367.426 313.082 369.396 319.483 354.622 326.87C339.849 334.257 356.1 342.136 356.1 342.136L373.336 346.076C373.336 346.076 391.064 343.614 393.034 340.659C395.004 337.704 398.451 327.855 397.466 326.378C396.73 325.326 395.906 324.338 395.004 323.423C395.004 323.423 383.185 321.453 383.678 316.036C384.17 310.619 367.426 313.082 367.426 313.082Z" fill="#FFB9B9"/>
    <path opacity="0.1" d="M367.426 313.082C367.426 313.082 369.396 319.483 354.622 326.87C339.849 334.257 356.1 342.136 356.1 342.136L373.336 346.076C373.336 346.076 391.064 343.614 393.034 340.659C395.004 337.704 398.451 327.855 397.466 326.378C396.73 325.326 395.906 324.338 395.004 323.423C395.004 323.423 383.185 321.453 383.678 316.036C384.17 310.619 367.426 313.082 367.426 313.082Z" fill="black"/>
    <path d="M377.029 323.177C385.733 323.177 392.788 316.122 392.788 307.418C392.788 298.715 385.733 291.66 377.029 291.66C368.326 291.66 361.271 298.715 361.271 307.418C361.271 316.122 368.326 323.177 377.029 323.177Z" fill="#FFB9B9"/>
    <path d="M375.306 340.659C375.306 340.659 356.327 339.271 355.967 326.176C355.967 326.176 349.205 325.393 347.235 327.363C345.266 329.333 338.864 330.81 338.864 335.734C338.864 340.659 349.698 355.433 349.698 355.433C349.698 355.433 355.607 375.131 353.145 378.578C350.683 382.025 350.19 390.89 350.19 390.89C350.19 390.89 374.813 388.92 378.753 390.89C382.693 392.859 398.451 392.859 399.436 390.89C400.421 388.92 398.451 364.297 398.451 364.297C398.451 364.297 402.884 358.387 401.899 351.493L413.718 337.704C413.718 337.704 409.286 324.408 402.391 324.408C402.391 324.408 393.034 321.946 392.788 323.177C392.542 324.408 397.466 338.197 375.306 340.659Z" fill="#FF6584"/>
    <path d="M330.984 383.995C330.984 383.995 335.416 390.89 346.743 392.367C358.07 393.844 360.039 389.905 359.055 388.92C358.07 387.935 346.251 383.503 346.251 383.503L339.356 378.086L330.984 383.995Z" fill="#FFB9B9"/>
    <path d="M411.748 378.086L398.944 385.473C398.944 385.473 382.2 384.488 388.602 389.412C395.004 394.337 406.823 392.367 406.823 392.367L418.15 386.95L411.748 378.086Z" fill="#FFB9B9"/>
    <path d="M347.728 390.89C347.728 390.89 335.909 419.945 350.19 424.377C364.472 428.809 403.869 427.824 412.733 421.914C421.597 416.005 424.059 408.126 422.582 405.663C421.105 403.201 411.255 396.307 404.361 395.814C397.466 395.322 347.728 390.89 347.728 390.89Z" fill="#2F2E41"/>
    <path opacity="0.05" d="M347.728 390.89C347.728 390.89 335.909 419.945 350.19 424.377C364.472 428.809 403.869 427.824 412.733 421.914C421.597 416.005 424.059 408.126 422.582 405.663C421.105 403.201 411.255 396.307 404.361 395.814C397.466 395.322 347.728 390.89 347.728 390.89Z" fill="black"/>
    <path d="M403.517 392.695C403.517 392.695 445.235 377.593 444.743 395.814C444.25 414.035 418.15 418.96 418.15 418.96L410.27 419.945L366.934 421.422C366.934 421.422 368.411 413.543 364.964 412.558C364.964 412.558 376.291 409.603 376.783 409.111C377.276 408.618 405.346 398.769 407.316 398.277C409.286 397.784 415.195 393.844 419.627 394.337C419.627 394.337 424.552 390.397 429.969 391.382L414.703 392.367L403.517 392.695Z" fill="#2F2E41"/>
    <path opacity="0.1" d="M403.517 392.695C403.517 392.695 445.235 377.593 444.743 395.814C444.25 414.035 418.15 418.96 418.15 418.96L410.27 419.945L366.934 421.422C366.934 421.422 368.411 413.543 364.964 412.558C364.964 412.558 376.291 409.603 376.783 409.111C377.276 408.618 405.346 398.769 407.316 398.277C409.286 397.784 415.195 393.844 419.627 394.337C419.627 394.337 424.552 390.397 429.969 391.382L414.703 392.367L403.517 392.695Z" fill="black"/>
    <path d="M396.147 395.14L401.406 407.141L433.416 395.814L435.879 389.413L427.506 387.935L410.676 390.89L403.376 392.859L396.147 395.14Z" fill="#2F2E41"/>
    <path opacity="0.1" d="M396.147 395.14L401.406 407.141L433.416 395.814L435.879 389.413L427.506 387.935L410.676 390.89L403.376 392.859L396.147 395.14Z" fill="black"/>
    <path d="M328.029 409.603C328.029 409.603 337.386 421.422 348.22 424.377C359.055 427.331 364.964 423.392 364.964 423.392L361.517 409.603L360.039 400.739L353.637 396.307L340.833 390.397L325.567 385.473C325.567 385.473 319.165 384.488 319.165 385.473C319.165 386.458 325.075 401.231 325.075 401.231L328.029 409.603Z" fill="#2F2E41"/>
    <path d="M339.356 416.005C339.356 416.005 341.326 430.286 343.788 431.271C346.251 432.256 353.638 430.286 355.607 429.301C357.577 428.316 364.273 423.772 364.273 423.772C364.273 423.772 340.833 415.02 339.356 416.005Z" fill="#F2F2F2"/>
    <path d="M384.17 417.483L393.527 418.96L392.542 430.286L379.491 427.117L384.17 417.483Z" fill="#FFB9B9"/>
    <path d="M390.033 420.635C390.033 420.635 385.647 425.854 390.08 428.809L393.034 431.271C393.034 431.271 402.884 433.241 403.869 434.226C404.853 435.211 408.793 432.749 408.793 432.749C408.793 432.749 409.286 417.975 408.793 416.99C408.301 416.005 402.391 415.02 401.899 416.005C401.406 416.99 395.497 418.467 392.049 417.482L390.033 420.635Z" fill="#F2F2F2"/>
    <path d="M350.683 394.337C350.683 394.337 316.21 374.146 310.793 381.533C305.376 388.92 299.467 399.261 315.225 407.141C330.984 415.02 380.23 431.271 380.23 431.271C380.23 431.271 387.617 419.945 387.617 416.99C387.617 416.99 361.517 405.171 357.085 404.186C352.653 403.201 334.924 391.875 332.462 390.89C329.999 389.905 326.552 386.95 326.552 386.95L350.683 394.337Z" fill="#2F2E41"/>
    <path d="M340.833 333.272L338.864 334.75C338.864 334.75 334.431 346.076 333.939 352.478C333.447 358.88 327.537 378.578 328.029 381.041C328.522 383.503 329.014 385.473 331.969 387.935C331.969 387.935 335.909 379.071 342.803 380.548L351.175 350.016L340.833 333.272Z" fill="#FF6584"/>
    <path d="M409.778 333.272L413.718 337.704C413.718 337.704 416.18 343.614 416.18 345.091C416.18 346.569 421.105 368.237 421.597 369.222C422.09 370.206 424.059 382.518 421.597 385.473C419.135 388.427 414.703 390.397 414.703 390.397C414.703 390.397 417.657 380.056 408.301 379.563L409.286 375.623L400.421 346.076L409.778 333.272Z" fill="#FF6584"/>
    <path d="M341.818 367.177V393.117C341.818 394.755 342.463 396.327 343.612 397.494C344.762 398.661 346.325 399.328 347.962 399.352L402.211 400.156C403.839 400.18 405.412 399.567 406.594 398.446C407.776 397.326 408.472 395.787 408.535 394.16L409.532 368.218C409.564 367.387 409.43 366.558 409.137 365.779C408.844 365.001 408.398 364.29 407.826 363.686C407.253 363.083 406.566 362.6 405.805 362.266C405.043 361.932 404.223 361.754 403.391 361.742L348.145 360.941C347.319 360.929 346.498 361.082 345.731 361.39C344.964 361.698 344.266 362.155 343.677 362.736C343.088 363.316 342.621 364.007 342.302 364.77C341.983 365.532 341.818 366.351 341.818 367.177Z" fill="#3F3D56"/>
    <path d="M377.954 306.913C387.322 306.913 394.916 302.824 394.916 297.779C394.916 292.735 387.322 288.646 377.954 288.646C368.585 288.646 360.991 292.735 360.991 297.779C360.991 302.824 368.585 306.913 377.954 306.913Z" fill="#2F2E41"/>
    <path d="M375.06 384.734C377.235 384.734 378.999 382.97 378.999 380.794C378.999 378.619 377.235 376.855 375.06 376.855C372.884 376.855 371.12 378.619 371.12 380.794C371.12 382.97 372.884 384.734 375.06 384.734Z" fill="#F2F2F2"/>
</svg>
